<mxfile host="www.draw.io" modified="2020-02-20T20:01:24.268Z" agent="Mozilla/5.0 (Windows NT 10.0; Win64; x64; rv:73.0) Gecko/20100101 Firefox/73.0" etag="J7oWhkG98u6oQ6eSme1f" version="12.7.2" type="github">
  <diagram name="Page-1" id="2c0d36ab-eaac-3732-788b-9136903baeff">
    <mxGraphModel dx="2031" dy="1099" grid="1" gridSize="10" guides="1" tooltips="1" connect="1" arrows="1" fold="1" page="1" pageScale="1.5" pageWidth="1169" pageHeight="827" background="#ffffff" math="0" shadow="0">
      <root>
        <mxCell id="0" />
        <mxCell id="1" parent="0" />
        <mxCell id="aqaN2x8xtnucJHHyI4Kr-158" style="edgeStyle=orthogonalEdgeStyle;rounded=0;orthogonalLoop=1;jettySize=auto;html=1;exitX=0.5;exitY=1;exitDx=0;exitDy=0;" edge="1" parent="1" source="2" target="aqaN2x8xtnucJHHyI4Kr-149">
          <mxGeometry relative="1" as="geometry" />
        </mxCell>
        <mxCell id="aqaN2x8xtnucJHHyI4Kr-184" style="edgeStyle=orthogonalEdgeStyle;rounded=0;orthogonalLoop=1;jettySize=auto;html=1;entryX=0.5;entryY=0;entryDx=0;entryDy=0;" edge="1" parent="1" source="2" target="10">
          <mxGeometry relative="1" as="geometry" />
        </mxCell>
        <mxCell id="2" value="CocinaApp" style="rounded=1;fillColor=#23445D;gradientColor=none;strokeColor=none;fontColor=#FFFFFF;fontStyle=1;fontFamily=Tahoma;fontSize=14" parent="1" vertex="1">
          <mxGeometry x="911.5" y="185.5" width="190" height="80" as="geometry" />
        </mxCell>
        <mxCell id="4" value="Register" style="rounded=1;fillColor=#23445D;gradientColor=none;strokeColor=none;fontColor=#FFFFFF;fontStyle=1;fontFamily=Tahoma;fontSize=14" parent="1" vertex="1">
          <mxGeometry x="1209.9999999999998" y="335.5" width="190" height="80" as="geometry" />
        </mxCell>
        <mxCell id="9" value="" style="edgeStyle=elbowEdgeStyle;elbow=vertical;strokeWidth=2;rounded=0" parent="1" source="2" target="4" edge="1">
          <mxGeometry x="337" y="215.5" width="100" height="100" as="geometry">
            <mxPoint x="337" y="315.5" as="sourcePoint" />
            <mxPoint x="437" y="215.5" as="targetPoint" />
          </mxGeometry>
        </mxCell>
        <mxCell id="aqaN2x8xtnucJHHyI4Kr-141" style="edgeStyle=orthogonalEdgeStyle;rounded=0;orthogonalLoop=1;jettySize=auto;html=1;exitX=0.5;exitY=1;exitDx=0;exitDy=0;" edge="1" parent="1" source="10" target="42">
          <mxGeometry relative="1" as="geometry" />
        </mxCell>
        <mxCell id="10" value="Contact Us&#xa;" style="rounded=1;fillColor=#23445D;gradientColor=none;strokeColor=none;fontColor=#FFFFFF;fontStyle=1;fontFamily=Tahoma;fontSize=14" parent="1" vertex="1">
          <mxGeometry x="914.5" y="335.5" width="190" height="80" as="geometry" />
        </mxCell>
        <mxCell id="aqaN2x8xtnucJHHyI4Kr-148" style="edgeStyle=orthogonalEdgeStyle;rounded=0;orthogonalLoop=1;jettySize=auto;html=1;exitX=0.5;exitY=1;exitDx=0;exitDy=0;entryX=0.5;entryY=0;entryDx=0;entryDy=0;" edge="1" parent="1" source="12" target="aqaN2x8xtnucJHHyI4Kr-145">
          <mxGeometry relative="1" as="geometry" />
        </mxCell>
        <mxCell id="12" value="About&#xa;" style="rounded=1;fillColor=#23445D;gradientColor=none;strokeColor=none;fontColor=#FFFFFF;fontStyle=1;fontFamily=Tahoma;fontSize=14" parent="1" vertex="1">
          <mxGeometry x="619.9999999999999" y="335.5" width="190" height="80" as="geometry" />
        </mxCell>
        <mxCell id="13" value="Index" style="rounded=1;fillColor=#23445D;gradientColor=none;strokeColor=none;fontColor=#FFFFFF;fontStyle=1;fontFamily=Tahoma;fontSize=14" parent="1" vertex="1">
          <mxGeometry x="360" y="335.5" width="190" height="80" as="geometry" />
        </mxCell>
        <mxCell id="41" value="Phones/&#xa;Public information" style="rounded=1;fillColor=#23445D;gradientColor=none;strokeColor=none;fontColor=#FFFFFF;fontStyle=1;fontFamily=Tahoma;fontSize=14" parent="1" vertex="1">
          <mxGeometry x="943" y="440" width="133" height="60" as="geometry" />
        </mxCell>
        <mxCell id="aqaN2x8xtnucJHHyI4Kr-185" style="edgeStyle=orthogonalEdgeStyle;rounded=0;orthogonalLoop=1;jettySize=auto;html=1;exitX=0.5;exitY=1;exitDx=0;exitDy=0;entryX=0.5;entryY=0;entryDx=0;entryDy=0;" edge="1" parent="1" source="42" target="43">
          <mxGeometry relative="1" as="geometry" />
        </mxCell>
        <mxCell id="42" value="Social Media" style="rounded=1;fillColor=#23445D;gradientColor=none;strokeColor=none;fontColor=#FFFFFF;fontStyle=1;fontFamily=Tahoma;fontSize=14" parent="1" vertex="1">
          <mxGeometry x="941.5" y="520" width="130" height="60" as="geometry" />
        </mxCell>
        <mxCell id="43" value="Map" style="rounded=1;fillColor=#23445D;gradientColor=none;strokeColor=none;fontColor=#FFFFFF;fontStyle=1;fontFamily=Tahoma;fontSize=14" parent="1" vertex="1">
          <mxGeometry x="943" y="600" width="130" height="60" as="geometry" />
        </mxCell>
        <mxCell id="59" value="" style="edgeStyle=elbowEdgeStyle;elbow=vertical;strokeWidth=2;rounded=0" parent="1" source="2" target="12" edge="1">
          <mxGeometry x="347" y="225.5" width="100" height="100" as="geometry">
            <mxPoint x="861.9999999999999" y="275.5" as="sourcePoint" />
            <mxPoint x="1466.9999999999998" y="345.5" as="targetPoint" />
          </mxGeometry>
        </mxCell>
        <mxCell id="61" value="" style="edgeStyle=elbowEdgeStyle;elbow=vertical;strokeWidth=2;rounded=0" parent="1" source="2" target="13" edge="1">
          <mxGeometry x="-23" y="135.5" width="100" height="100" as="geometry">
            <mxPoint x="-23" y="235.5" as="sourcePoint" />
            <mxPoint x="77" y="135.5" as="targetPoint" />
          </mxGeometry>
        </mxCell>
        <mxCell id="70" value="" style="edgeStyle=elbowEdgeStyle;elbow=horizontal;strokeWidth=2;rounded=0" parent="1" target="26" edge="1">
          <mxGeometry x="-23" y="135.5" width="100" height="100" as="geometry">
            <mxPoint x="417" y="485.5" as="sourcePoint" />
            <mxPoint x="77" y="135.5" as="targetPoint" />
            <Array as="points">
              <mxPoint x="397" y="535.5" />
            </Array>
          </mxGeometry>
        </mxCell>
        <mxCell id="71" value="" style="edgeStyle=elbowEdgeStyle;elbow=horizontal;strokeWidth=2;rounded=0" parent="1" target="27" edge="1">
          <mxGeometry x="-23" y="135.5" width="100" height="100" as="geometry">
            <mxPoint x="417" y="485.5" as="sourcePoint" />
            <mxPoint x="77" y="135.5" as="targetPoint" />
            <Array as="points">
              <mxPoint x="397" y="575.5" />
            </Array>
          </mxGeometry>
        </mxCell>
        <mxCell id="72" value="" style="edgeStyle=elbowEdgeStyle;elbow=horizontal;strokeWidth=2;rounded=0" parent="1" target="28" edge="1">
          <mxGeometry x="-23" y="135.5" width="100" height="100" as="geometry">
            <mxPoint x="417" y="485.5" as="sourcePoint" />
            <mxPoint x="77" y="135.5" as="targetPoint" />
            <Array as="points">
              <mxPoint x="397" y="615.5" />
            </Array>
          </mxGeometry>
        </mxCell>
        <mxCell id="84" value="" style="edgeStyle=elbowEdgeStyle;elbow=horizontal;strokeWidth=2;rounded=0" parent="1" target="45" edge="1">
          <mxGeometry x="-23" y="135.5" width="100" height="100" as="geometry">
            <mxPoint x="1217" y="485.5" as="sourcePoint" />
            <mxPoint x="77" y="135.5" as="targetPoint" />
            <Array as="points">
              <mxPoint x="1197" y="545.5" />
            </Array>
          </mxGeometry>
        </mxCell>
        <mxCell id="85" value="" style="edgeStyle=elbowEdgeStyle;elbow=horizontal;strokeWidth=2;rounded=0" parent="1" target="46" edge="1">
          <mxGeometry x="-23" y="135.5" width="100" height="100" as="geometry">
            <mxPoint x="1217" y="485.5" as="sourcePoint" />
            <mxPoint x="77" y="135.5" as="targetPoint" />
            <Array as="points">
              <mxPoint x="1197" y="575.5" />
            </Array>
          </mxGeometry>
        </mxCell>
        <mxCell id="86" value="" style="edgeStyle=elbowEdgeStyle;elbow=horizontal;strokeWidth=2;rounded=0" parent="1" target="47" edge="1">
          <mxGeometry x="-23" y="135.5" width="100" height="100" as="geometry">
            <mxPoint x="1217" y="485.5" as="sourcePoint" />
            <mxPoint x="77" y="135.5" as="targetPoint" />
            <Array as="points">
              <mxPoint x="1197" y="625.5" />
            </Array>
          </mxGeometry>
        </mxCell>
        <mxCell id="aqaN2x8xtnucJHHyI4Kr-143" value="Services" style="rounded=1;fillColor=#23445D;gradientColor=none;strokeColor=none;fontColor=#FFFFFF;fontStyle=1;fontFamily=Tahoma;fontSize=14" vertex="1" parent="1">
          <mxGeometry x="660" y="520" width="130" height="60" as="geometry" />
        </mxCell>
        <mxCell id="aqaN2x8xtnucJHHyI4Kr-183" style="edgeStyle=orthogonalEdgeStyle;rounded=0;orthogonalLoop=1;jettySize=auto;html=1;exitX=1;exitY=0.5;exitDx=0;exitDy=0;" edge="1" parent="1" source="aqaN2x8xtnucJHHyI4Kr-149" target="aqaN2x8xtnucJHHyI4Kr-159">
          <mxGeometry relative="1" as="geometry" />
        </mxCell>
        <mxCell id="aqaN2x8xtnucJHHyI4Kr-188" style="edgeStyle=orthogonalEdgeStyle;rounded=0;orthogonalLoop=1;jettySize=auto;html=1;exitX=0.5;exitY=1;exitDx=0;exitDy=0;" edge="1" parent="1" source="aqaN2x8xtnucJHHyI4Kr-149" target="aqaN2x8xtnucJHHyI4Kr-150">
          <mxGeometry relative="1" as="geometry" />
        </mxCell>
        <mxCell id="aqaN2x8xtnucJHHyI4Kr-149" value="Login" style="rounded=1;fillColor=#23445D;gradientColor=none;strokeColor=none;fontColor=#FFFFFF;fontStyle=1;fontFamily=Tahoma;fontSize=14" vertex="1" parent="1">
          <mxGeometry x="1499.9999999999998" y="335.5" width="190" height="80" as="geometry" />
        </mxCell>
        <mxCell id="aqaN2x8xtnucJHHyI4Kr-189" style="edgeStyle=orthogonalEdgeStyle;rounded=0;orthogonalLoop=1;jettySize=auto;html=1;exitX=0.5;exitY=1;exitDx=0;exitDy=0;" edge="1" parent="1" source="aqaN2x8xtnucJHHyI4Kr-150" target="aqaN2x8xtnucJHHyI4Kr-152">
          <mxGeometry relative="1" as="geometry" />
        </mxCell>
        <mxCell id="aqaN2x8xtnucJHHyI4Kr-150" value="Facebook" style="rounded=1;fillColor=#23445D;gradientColor=none;strokeColor=none;fontColor=#FFFFFF;fontStyle=1;fontFamily=Tahoma;fontSize=14" vertex="1" parent="1">
          <mxGeometry x="1530" y="440" width="130" height="60" as="geometry" />
        </mxCell>
        <mxCell id="aqaN2x8xtnucJHHyI4Kr-151" value="Local account" style="rounded=1;fillColor=#23445D;gradientColor=none;strokeColor=none;fontColor=#FFFFFF;fontStyle=1;fontFamily=Tahoma;fontSize=14" vertex="1" parent="1">
          <mxGeometry x="1530" y="600" width="130" height="60" as="geometry" />
        </mxCell>
        <mxCell id="aqaN2x8xtnucJHHyI4Kr-190" style="edgeStyle=orthogonalEdgeStyle;rounded=0;orthogonalLoop=1;jettySize=auto;html=1;exitX=0.5;exitY=1;exitDx=0;exitDy=0;entryX=0.5;entryY=0;entryDx=0;entryDy=0;" edge="1" parent="1" source="aqaN2x8xtnucJHHyI4Kr-152" target="aqaN2x8xtnucJHHyI4Kr-151">
          <mxGeometry relative="1" as="geometry" />
        </mxCell>
        <mxCell id="aqaN2x8xtnucJHHyI4Kr-152" value="Gmail" style="rounded=1;fillColor=#23445D;gradientColor=none;strokeColor=none;fontColor=#FFFFFF;fontStyle=1;fontFamily=Tahoma;fontSize=14" vertex="1" parent="1">
          <mxGeometry x="1530" y="520" width="130" height="60" as="geometry" />
        </mxCell>
        <mxCell id="aqaN2x8xtnucJHHyI4Kr-168" style="edgeStyle=orthogonalEdgeStyle;rounded=0;orthogonalLoop=1;jettySize=auto;html=1;exitX=0.5;exitY=1;exitDx=0;exitDy=0;entryX=0.5;entryY=0;entryDx=0;entryDy=0;" edge="1" parent="1" source="aqaN2x8xtnucJHHyI4Kr-159" target="aqaN2x8xtnucJHHyI4Kr-163">
          <mxGeometry relative="1" as="geometry" />
        </mxCell>
        <mxCell id="aqaN2x8xtnucJHHyI4Kr-169" style="edgeStyle=orthogonalEdgeStyle;rounded=0;orthogonalLoop=1;jettySize=auto;html=1;exitX=0.5;exitY=1;exitDx=0;exitDy=0;entryX=0.5;entryY=0;entryDx=0;entryDy=0;" edge="1" parent="1" source="aqaN2x8xtnucJHHyI4Kr-159" target="aqaN2x8xtnucJHHyI4Kr-164">
          <mxGeometry relative="1" as="geometry" />
        </mxCell>
        <mxCell id="aqaN2x8xtnucJHHyI4Kr-170" style="edgeStyle=orthogonalEdgeStyle;rounded=0;orthogonalLoop=1;jettySize=auto;html=1;exitX=0.5;exitY=1;exitDx=0;exitDy=0;entryX=0.5;entryY=0;entryDx=0;entryDy=0;" edge="1" parent="1" source="aqaN2x8xtnucJHHyI4Kr-159" target="aqaN2x8xtnucJHHyI4Kr-165">
          <mxGeometry relative="1" as="geometry" />
        </mxCell>
        <mxCell id="aqaN2x8xtnucJHHyI4Kr-171" style="edgeStyle=orthogonalEdgeStyle;rounded=0;orthogonalLoop=1;jettySize=auto;html=1;exitX=0.5;exitY=1;exitDx=0;exitDy=0;entryX=0.5;entryY=0;entryDx=0;entryDy=0;" edge="1" parent="1" source="aqaN2x8xtnucJHHyI4Kr-159" target="aqaN2x8xtnucJHHyI4Kr-161">
          <mxGeometry relative="1" as="geometry" />
        </mxCell>
        <mxCell id="aqaN2x8xtnucJHHyI4Kr-159" value="Order" style="rounded=1;fillColor=#23445D;gradientColor=none;strokeColor=none;fontColor=#FFFFFF;fontStyle=1;fontFamily=Tahoma;fontSize=14" vertex="1" parent="1">
          <mxGeometry x="1759.9999999999998" y="335.5" width="190" height="80" as="geometry" />
        </mxCell>
        <mxCell id="aqaN2x8xtnucJHHyI4Kr-176" value="" style="edgeStyle=orthogonalEdgeStyle;rounded=0;orthogonalLoop=1;jettySize=auto;html=1;" edge="1" parent="1" source="aqaN2x8xtnucJHHyI4Kr-160" target="aqaN2x8xtnucJHHyI4Kr-173">
          <mxGeometry relative="1" as="geometry" />
        </mxCell>
        <mxCell id="aqaN2x8xtnucJHHyI4Kr-160" value="Products" style="rounded=1;fillColor=#23445D;gradientColor=none;strokeColor=none;fontColor=#FFFFFF;fontStyle=1;fontFamily=Tahoma;fontSize=14" vertex="1" parent="1">
          <mxGeometry x="1790" y="620.25" width="130" height="60" as="geometry" />
        </mxCell>
        <mxCell id="aqaN2x8xtnucJHHyI4Kr-161" value="Cart summary" style="rounded=1;fillColor=#23445D;gradientColor=none;strokeColor=none;fontColor=#FFFFFF;fontStyle=1;fontFamily=Tahoma;fontSize=14;arcSize=12;" vertex="1" parent="1">
          <mxGeometry x="2360" y="520" width="190" height="80" as="geometry" />
        </mxCell>
        <mxCell id="aqaN2x8xtnucJHHyI4Kr-172" style="edgeStyle=orthogonalEdgeStyle;rounded=0;orthogonalLoop=1;jettySize=auto;html=1;exitX=0.5;exitY=1;exitDx=0;exitDy=0;" edge="1" parent="1" source="aqaN2x8xtnucJHHyI4Kr-163" target="aqaN2x8xtnucJHHyI4Kr-160">
          <mxGeometry relative="1" as="geometry" />
        </mxCell>
        <mxCell id="aqaN2x8xtnucJHHyI4Kr-163" value="Categories" style="rounded=1;fillColor=#23445D;gradientColor=none;strokeColor=none;fontColor=#FFFFFF;fontStyle=1;fontFamily=Tahoma;fontSize=14" vertex="1" parent="1">
          <mxGeometry x="1759.9999999999998" y="520" width="190" height="80" as="geometry" />
        </mxCell>
        <mxCell id="aqaN2x8xtnucJHHyI4Kr-177" style="edgeStyle=orthogonalEdgeStyle;rounded=0;orthogonalLoop=1;jettySize=auto;html=1;exitX=0.5;exitY=1;exitDx=0;exitDy=0;" edge="1" parent="1" source="aqaN2x8xtnucJHHyI4Kr-164" target="aqaN2x8xtnucJHHyI4Kr-166">
          <mxGeometry relative="1" as="geometry" />
        </mxCell>
        <mxCell id="aqaN2x8xtnucJHHyI4Kr-164" value="Shipping method" style="rounded=1;fillColor=#23445D;gradientColor=none;strokeColor=none;fontColor=#FFFFFF;fontStyle=1;fontFamily=Tahoma;fontSize=14" vertex="1" parent="1">
          <mxGeometry x="1959.9999999999998" y="520" width="190" height="80" as="geometry" />
        </mxCell>
        <mxCell id="aqaN2x8xtnucJHHyI4Kr-180" style="edgeStyle=orthogonalEdgeStyle;rounded=0;orthogonalLoop=1;jettySize=auto;html=1;exitX=0.5;exitY=1;exitDx=0;exitDy=0;" edge="1" parent="1" source="aqaN2x8xtnucJHHyI4Kr-165" target="aqaN2x8xtnucJHHyI4Kr-179">
          <mxGeometry relative="1" as="geometry" />
        </mxCell>
        <mxCell id="aqaN2x8xtnucJHHyI4Kr-165" value="Payment method" style="rounded=1;fillColor=#23445D;gradientColor=none;strokeColor=none;fontColor=#FFFFFF;fontStyle=1;fontFamily=Tahoma;fontSize=14" vertex="1" parent="1">
          <mxGeometry x="2160" y="520" width="190" height="80" as="geometry" />
        </mxCell>
        <mxCell id="aqaN2x8xtnucJHHyI4Kr-178" style="edgeStyle=orthogonalEdgeStyle;rounded=0;orthogonalLoop=1;jettySize=auto;html=1;exitX=0.5;exitY=1;exitDx=0;exitDy=0;" edge="1" parent="1" source="aqaN2x8xtnucJHHyI4Kr-166" target="aqaN2x8xtnucJHHyI4Kr-167">
          <mxGeometry relative="1" as="geometry" />
        </mxCell>
        <mxCell id="aqaN2x8xtnucJHHyI4Kr-166" value="Delivered" style="rounded=1;fillColor=#23445D;gradientColor=none;strokeColor=none;fontColor=#FFFFFF;fontStyle=1;fontFamily=Tahoma;fontSize=14" vertex="1" parent="1">
          <mxGeometry x="1990" y="620.25" width="130" height="60" as="geometry" />
        </mxCell>
        <mxCell id="aqaN2x8xtnucJHHyI4Kr-167" value="On Site" style="rounded=1;fillColor=#23445D;gradientColor=none;strokeColor=none;fontColor=#FFFFFF;fontStyle=1;fontFamily=Tahoma;fontSize=14" vertex="1" parent="1">
          <mxGeometry x="1990" y="710" width="130" height="60" as="geometry" />
        </mxCell>
        <mxCell id="aqaN2x8xtnucJHHyI4Kr-173" value="Services" style="rounded=1;fillColor=#23445D;gradientColor=none;strokeColor=none;fontColor=#FFFFFF;fontStyle=1;fontFamily=Tahoma;fontSize=14" vertex="1" parent="1">
          <mxGeometry x="1790" y="710" width="130" height="60" as="geometry" />
        </mxCell>
        <mxCell id="aqaN2x8xtnucJHHyI4Kr-179" value="Paypal" style="rounded=1;fillColor=#23445D;gradientColor=none;strokeColor=none;fontColor=#FFFFFF;fontStyle=1;fontFamily=Tahoma;fontSize=14" vertex="1" parent="1">
          <mxGeometry x="2190" y="620" width="130" height="60" as="geometry" />
        </mxCell>
        <mxCell id="aqaN2x8xtnucJHHyI4Kr-187" style="edgeStyle=orthogonalEdgeStyle;rounded=0;orthogonalLoop=1;jettySize=auto;html=1;exitX=0.5;exitY=1;exitDx=0;exitDy=0;" edge="1" parent="1" source="aqaN2x8xtnucJHHyI4Kr-145" target="aqaN2x8xtnucJHHyI4Kr-143">
          <mxGeometry relative="1" as="geometry" />
        </mxCell>
        <mxCell id="aqaN2x8xtnucJHHyI4Kr-145" value="Brief history on how&#xa;it started&#xa;" style="rounded=1;fillColor=#23445D;gradientColor=none;strokeColor=none;fontColor=#FFFFFF;fontStyle=1;fontFamily=Tahoma;fontSize=14" vertex="1" parent="1">
          <mxGeometry x="650" y="440" width="150" height="60" as="geometry" />
        </mxCell>
        <mxCell id="aqaN2x8xtnucJHHyI4Kr-186" style="edgeStyle=orthogonalEdgeStyle;rounded=0;orthogonalLoop=1;jettySize=auto;html=1;exitX=0.5;exitY=1;exitDx=0;exitDy=0;entryX=0.5;entryY=0;entryDx=0;entryDy=0;" edge="1" parent="1" source="12" target="aqaN2x8xtnucJHHyI4Kr-145">
          <mxGeometry relative="1" as="geometry">
            <mxPoint x="715" y="415.5000000000002" as="sourcePoint" />
            <mxPoint x="795" y="590" as="targetPoint" />
          </mxGeometry>
        </mxCell>
      </root>
    </mxGraphModel>
  </diagram>
</mxfile>
